<svg xmlns="http://www.w3.org/2000/svg" xmlns:xlink="http://www.w3.org/1999/xlink" width="139" height="181" viewBox="0 0 139 181"><defs><style>.a{fill:#fff;}.b,.c,.g{fill:#f97891;}.b{font-size:11px;font-family:NotoSans-Regular, Noto Sans;}.c{font-size:26px;font-family:SegoeUIBlack, Segoe UI;letter-spacing:0.1em;}.d{fill:none;stroke-linecap:round;}.e{fill:url(#a);}.f,.g{stroke:none;}</style><linearGradient id="a" x1="0.5" x2="0.5" y2="1" gradientUnits="objectBoundingBox"><stop offset="0" stop-color="#fdab83"/><stop offset="1" stop-color="#f7849b"/></linearGradient></defs><g transform="translate(-119 -308)"><circle class="a" cx="69.5" cy="69.5" r="69.5" transform="translate(119 308)"/><g transform="translate(-756.574 -149.573)"><text class="b" transform="translate(899.574 635.573)"><tspan x="0" y="0">AT YOUR SERVICE</tspan></text><text class="c" transform="translate(916.574 616.573)"><tspan x="0" y="0">AYS</tspan></text><g transform="translate(883.574 473.573)"><g class="d" transform="translate(7 0)"><path class="f" d="M54,0A54,54,0,1,1,0,54,54,54,0,0,1,54,0Z"/><path class="g" d="M 54 0 C 24.17661285400391 0 0 24.17661285400391 0 54 C 0 83.82338714599609 24.17661285400391 108 54 108 C 83.82338714599609 108 108 83.82338714599609 108 54 C 108 24.17661285400391 83.82338714599609 0 54 0 M 54 -2 C 61.55907821655273 -2 68.89309692382813 -0.5190887451171875 75.79833984375 2.401580810546875 C 79.11700439453125 3.805244445800781 82.31770324707031 5.542510986328125 85.3115234375 7.565109252929688 C 88.27639770507813 9.568122863769531 91.06436920166016 11.86840057373047 93.59798431396484 14.40201568603516 C 96.13159942626953 16.93563079833984 98.43187713623047 19.72360229492188 100.4348907470703 22.6884765625 C 102.4574890136719 25.68228912353516 104.1947555541992 28.88300323486328 105.5984191894531 32.20166015625 C 108.5190887451172 39.10691070556641 110 46.44092178344727 110 54 C 110 61.55907821655273 108.5190887451172 68.89309692382813 105.5984191894531 75.79833984375 C 104.1947555541992 79.11700439453125 102.4574890136719 82.31770324707031 100.4348907470703 85.3115234375 C 98.43187713623047 88.27639770507813 96.13159942626953 91.06436920166016 93.59798431396484 93.59798431396484 C 91.06436920166016 96.13159942626953 88.27639770507813 98.43187713623047 85.3115234375 100.4348907470703 C 82.31770324707031 102.4574890136719 79.11700439453125 104.1947555541992 75.79833984375 105.5984191894531 C 68.89309692382813 108.5190887451172 61.55907821655273 110 54 110 C 46.44092178344727 110 39.10691070556641 108.5190887451172 32.20166015625 105.5984191894531 C 28.88300323486328 104.1947555541992 25.68228912353516 102.4574890136719 22.6884765625 100.4348907470703 C 19.72360229492188 98.43187713623047 16.93563079833984 96.13159942626953 14.40201568603516 93.59798431396484 C 11.86840057373047 91.06436920166016 9.568122863769531 88.27639770507813 7.565109252929688 85.3115234375 C 5.542510986328125 82.31770324707031 3.805244445800781 79.11700439453125 2.401580810546875 75.79833984375 C -0.5190887451171875 68.89309692382813 -2 61.55907821655273 -2 54 C -2 46.44092178344727 -0.5190887451171875 39.10691070556641 2.401580810546875 32.20166015625 C 3.805244445800781 28.88300323486328 5.542510986328125 25.68228912353516 7.565109252929688 22.6884765625 C 9.568122863769531 19.72360229492188 11.86840057373047 16.93563079833984 14.40201568603516 14.40201568603516 C 16.93563079833984 11.86840057373047 19.72360229492188 9.568122863769531 22.6884765625 7.565109252929688 C 25.68228912353516 5.542510986328125 28.88300323486328 3.805244445800781 32.20166015625 2.401580810546875 C 39.10691070556641 -0.5190887451171875 46.44092178344727 -2 54 -2 Z"/></g><path class="a" d="M0,0H18.825V18.825H0Z" transform="translate(96.777 20.474) rotate(-25)"/><rect class="a" width="23.009" height="61.357" transform="matrix(0.995, -0.105, 0.105, 0.995, 0, 30.733)"/><path class="e" d="M135.517-155.6q0,2.451-4.9,4.177a35.7,35.7,0,0,1-11.806,1.726,110.1,110.1,0,0,1-22.06-2.751,35.846,35.846,0,0,0-11.681,9.129q-5.327,6.128-11.58,17.633,3.1.5,5.152.8,2.8-6.453,8-6.453,3.552,0,3.552,2.751a4.072,4.072,0,0,1-2.376,3.577,12.354,12.354,0,0,1-6.228,1.376h-1q-.15.2-1.251,2.651a13.431,13.431,0,0,1-3.6,4.927,6.975,6.975,0,0,1-4.4,2.026q-.7,0-.7-.3,0-.25.5-.4,3.452-1.05,7-9.254-1.451-.15-4.2-.6l-.95-.2q-.7,1.251-2.051,3.7a83.712,83.712,0,0,1-6.978,11.005,35.569,35.569,0,0,1-7.228,6.5q-12.106,8.5-25.012,8.5-7.6,0-12.456-3.176t-4.852-8.179a6.474,6.474,0,0,1,1.476-4.277,4.451,4.451,0,0,1,3.527-1.776q3.3,0,3.3,3.352a3.84,3.84,0,0,1-1.025,2.676,3.231,3.231,0,0,1-2.476,1.126q-2.451,0-2.451-2.351.15-1.2-.3-1.2-.95,0-.95,2.651,0,4.2,4.377,7.178a18.365,18.365,0,0,0,10.58,2.976A28.614,28.614,0,0,0,48.026-101.9q7.8-5.828,17.108-20.135.8-1.15,2.351-3.552h-.95q-5.6,0-7.754,4.3-.25.7-.55.7a.354.354,0,0,1-.4-.4q0-2,2.826-3.777a11.055,11.055,0,0,1,5.978-1.776h1.451q13.106-19.809,27.463-26.212-3.852-.85-8-1.951-13.406-3.5-20.81-3.5-1.5,0-2.851.1a20.032,20.032,0,0,1,2.151,9.354q0,10.905-8.529,20.56t-18.234,9.655a8.951,8.951,0,0,1-6.653-2.576,9.149,9.149,0,0,1-2.551-6.728q0-9.454,9.83-19.134A43.88,43.88,0,0,1,61.833-159.2q-3.8-5.653-11.655-5.653c-8.571,0-18.951,8.036-22.346,12.55-.567.567-.439.452-1.986.583-.229.022-1.394.087-1.394.087s-.465.532,2.336-2.069c10.024-8.146,16.137-11.951,23.04-11.951q9.2,0,13.356,6.253a50.379,50.379,0,0,1,12.356-1.351,44.783,44.783,0,0,1,8.2.7q3.752.7,18.058,4.1a58.294,58.294,0,0,1,20.91-4.3,27.869,27.869,0,0,1,9.279,1.276Q135.517-157.7,135.517-155.6Zm-.95.1q0-1.551-3.277-2.676a24.368,24.368,0,0,0-7.879-1.126,51.423,51.423,0,0,0-20.009,3.8l6.7,1.5a68.751,68.751,0,0,0,15.457,1.951,17.335,17.335,0,0,0,6.3-1.05Q134.567-154.151,134.567-155.5ZM89.3-128.489q0-2.151-2.451-2.151c-1.864,0-3.494,1.27-4.99,4-.127.228-.348.675-.562,1.156l-.4.9h1.251a10.663,10.663,0,0,0,5.127-1.1A3.221,3.221,0,0,0,89.3-128.489ZM64.184-151.1a15.366,15.366,0,0,0-1.651-6.753q-11.505,1.451-21.56,10.98T30.918-127.938a8.538,8.538,0,0,0,2.226,5.953,7.164,7.164,0,0,0,5.528,2.451q8.7,0,17.108-10.43T64.184-151.1Z" transform="translate(-13.517 181.249)"/></g></g></g></svg>